<svg width="360" height="220" viewBox="0 0 360 220" fill="none" xmlns="http://www.w3.org/2000/svg">
<title>Brave Startpage — selected work</title>
<desc>Editorial project card for a custom dark browser startpage.</desc>
<defs>
  <linearGradient id="bg" x1="0" y1="0" x2="360" y2="220"><stop stop-color="#090A0C"/><stop offset="1" stop-color="#0C0D10"/></linearGradient>
  <linearGradient id="edge" x1="12" y1="12" x2="348" y2="208"><stop stop-color="#EEEAE2" stop-opacity=".20"/><stop offset=".55" stop-color="#B9B4AA" stop-opacity=".10"/><stop offset="1" stop-color="#FFFFFF" stop-opacity=".05"/></linearGradient>
</defs>
<rect width="360" height="220" rx="16" fill="url(#bg)"/>
<rect x=".75" y=".75" width="358.5" height="218.5" rx="15.25" stroke="url(#edge)" stroke-width="1.5"/>

<g transform="translate(24 23)" stroke="#CFC9BE" stroke-opacity=".68" stroke-width="1">
  <circle cx="14" cy="14" r="12"/>
  <path d="M14 0L17.5 10.5L28 14L17.5 17.5L14 28L10.5 17.5L0 14L10.5 10.5L14 0Z"/>
  <circle cx="14" cy="14" r="2" fill="#CFC9BE" fill-opacity=".5" stroke="none"/>
</g>

<text x="22" y="89" fill="#ECE8DF" font-family="Georgia, Times New Roman, serif" font-size="23" letter-spacing=".5">BRAVE STARTPAGE</text>
<text x="22" y="119" fill="#A9AFB8" font-family="Segoe UI, Arial, sans-serif" font-size="13.5">A dark browser startpage shaped around</text>
<text x="22" y="139" fill="#A9AFB8" font-family="Segoe UI, Arial, sans-serif" font-size="13.5">custom lighting, motion and fast access.</text>

<line x1="22" y1="158" x2="338" y2="158" stroke="#FFFFFF" stroke-opacity=".065"/>
<text x="22" y="181" fill="#7D838C" font-family="SFMono-Regular, Consolas, Liberation Mono, monospace" font-size="10.2" letter-spacing=".85">HTML · CSS · JAVASCRIPT · VITE</text>
<text x="22" y="205" fill="#C7C1B7" font-family="SFMono-Regular, Consolas, Liberation Mono, monospace" font-size="10.2" letter-spacing="1.1">OPEN REPOSITORY</text>
<path d="M316 201H337M331 195L337 201L331 207" stroke="#B8B2A8" stroke-opacity=".75"/>
</svg>
